<svg xmlns="http://www.w3.org/2000/svg" xmlns:xlink="http://www.w3.org/1999/xlink" width="158.15" height="150.34" viewBox="0 0 158.15 150.34">
  <defs>
    <clipPath id="clip-path">
      <rect id="Rectangle_7" data-name="Rectangle 7" width="158.147" height="150.343" transform="translate(398 130)" fill="none" stroke="#707070" stroke-width="1"/>
    </clipPath>
    <clipPath id="clip-cherry_blossom_small">
      <rect width="158.15" height="150.34"/>
    </clipPath>
  </defs>
  <g id="cherry_blossom_small" data-name="cherry blossom small" clip-path="url(#clip-cherry_blossom_small)">
    <g id="Mask_Group_2" data-name="Mask Group 2" transform="translate(-398 -130)" clip-path="url(#clip-path)">
      <g id="cherry_blossom" data-name="cherry blossom" transform="translate(398.088 129.881)">
        <path id="Subtraction_4" data-name="Subtraction 4" d="M19.182,65.962a55.265,55.265,0,0,1-7.82-6.71,45.109,45.109,0,0,1-5.784-7.4A38.313,38.313,0,0,1,1.83,43.96,34.548,34.548,0,0,1,.118,35.793,33.592,33.592,0,0,1,.37,28.009a35.173,35.173,0,0,1,2.07-7.673,42.327,42.327,0,0,1,9.591-14.31l7.15,8.832,7.15-8.832a42.326,42.326,0,0,1,9.591,14.31,35.174,35.174,0,0,1,2.07,7.673,33.592,33.592,0,0,1,.253,7.785,34.546,34.546,0,0,1-1.712,8.167,38.312,38.312,0,0,1-3.748,7.889A45.1,45.1,0,0,1,27,59.252a55.262,55.262,0,0,1-7.82,6.71Zm.091-65.9h-.182l.082-.059L19.182,0l.081.058.009.007Z" transform="translate(59.892)" fill="#8a8a8a"/>
        <path id="Subtraction_7" data-name="Subtraction 7" d="M19.182,65.962a55.265,55.265,0,0,1-7.82-6.71,45.109,45.109,0,0,1-5.784-7.4A38.313,38.313,0,0,1,1.83,43.96,34.548,34.548,0,0,1,.118,35.793,33.592,33.592,0,0,1,.37,28.009a35.173,35.173,0,0,1,2.07-7.673,42.327,42.327,0,0,1,9.591-14.31l7.15,8.832,7.15-8.832a42.326,42.326,0,0,1,9.591,14.31,35.174,35.174,0,0,1,2.07,7.673,33.592,33.592,0,0,1,.253,7.785,34.546,34.546,0,0,1-1.712,8.167,38.312,38.312,0,0,1-3.748,7.889A45.1,45.1,0,0,1,27,59.252a55.262,55.262,0,0,1-7.82,6.71Zm.091-65.9h-.182l.082-.059L19.182,0l.081.058.009.007Z" transform="matrix(0.309, -0.951, 0.951, 0.309, 0, 71.329)" fill="#8a8a8a"/>
        <path id="Subtraction_8" data-name="Subtraction 8" d="M19.182,65.962a55.265,55.265,0,0,1-7.82-6.71,45.109,45.109,0,0,1-5.784-7.4A38.313,38.313,0,0,1,1.83,43.96,34.548,34.548,0,0,1,.118,35.793,33.592,33.592,0,0,1,.37,28.009a35.173,35.173,0,0,1,2.07-7.673,42.327,42.327,0,0,1,9.591-14.31l7.15,8.832,7.15-8.832a42.326,42.326,0,0,1,9.591,14.31,35.174,35.174,0,0,1,2.07,7.673,33.592,33.592,0,0,1,.253,7.785,34.546,34.546,0,0,1-1.712,8.167,38.312,38.312,0,0,1-3.748,7.889A45.1,45.1,0,0,1,27,59.252a55.262,55.262,0,0,1-7.82,6.71Zm.091-65.9h-.182l.082-.059L19.182,0l.081.058.009.007Z" transform="matrix(-0.809, -0.588, 0.588, -0.809, 49.308, 150.344)" fill="#8a8a8a"/>
        <path id="Subtraction_6" data-name="Subtraction 6" d="M19.182,65.962a55.265,55.265,0,0,1-7.82-6.71,45.109,45.109,0,0,1-5.784-7.4A38.313,38.313,0,0,1,1.83,43.96,34.548,34.548,0,0,1,.118,35.793,33.592,33.592,0,0,1,.37,28.009a35.173,35.173,0,0,1,2.07-7.673,42.327,42.327,0,0,1,9.591-14.31l7.15,8.832,7.15-8.832a42.326,42.326,0,0,1,9.591,14.31,35.174,35.174,0,0,1,2.07,7.673,33.592,33.592,0,0,1,.253,7.785,34.546,34.546,0,0,1-1.712,8.167,38.312,38.312,0,0,1-3.748,7.889A45.1,45.1,0,0,1,27,59.252a55.262,55.262,0,0,1-7.82,6.71Zm.091-65.9h-.182l.082-.059L19.182,0l.081.058.009.007Z" transform="translate(146.292 34.842) rotate(72)" fill="#8a8a8a"/>
        <path id="Subtraction_10" data-name="Subtraction 10" d="M19.182,65.962a55.265,55.265,0,0,1-7.82-6.71,45.109,45.109,0,0,1-5.784-7.4A38.313,38.313,0,0,1,1.83,43.96,34.548,34.548,0,0,1,.118,35.793,33.592,33.592,0,0,1,.37,28.009a35.173,35.173,0,0,1,2.07-7.673,42.327,42.327,0,0,1,9.591-14.31l7.15,8.832,7.15-8.832a42.326,42.326,0,0,1,9.591,14.31,35.174,35.174,0,0,1,2.07,7.673,33.592,33.592,0,0,1,.253,7.785,34.546,34.546,0,0,1-1.712,8.167,38.312,38.312,0,0,1-3.748,7.889A45.1,45.1,0,0,1,27,59.252a55.262,55.262,0,0,1-7.82,6.71Zm.091-65.9h-.182l.082-.059L19.182,0l.081.058.009.007Z" transform="translate(139.877 127.794) rotate(144)" fill="#8a8a8a"/>
      </g>
    </g>
  </g>
</svg>
